<svg xmlns="http://www.w3.org/2000/svg" viewBox="0 0 64 64" width="64" height="64">
  <title>Bluey-themed wrap icon — stylized blue dog head</title>
  <circle cx="32" cy="32" r="30" fill="#3B82F6"/>
  <path d="M 18 18 L 24 34 L 32 22 Z" fill="#1E3A8A"/>
  <path d="M 46 18 L 40 34 L 32 22 Z" fill="#1E3A8A"/>
  <path d="M 20 20 L 24 32 L 30 23 Z" fill="#60A5FA"/>
  <path d="M 44 20 L 40 32 L 34 23 Z" fill="#60A5FA"/>
  <ellipse cx="32" cy="40" rx="16" ry="15" fill="#60A5FA"/>
  <ellipse cx="32" cy="47" rx="9" ry="6" fill="#DBEAFE"/>
  <circle cx="25" cy="34" r="2.5" fill="#0F172A"/>
  <circle cx="39" cy="34" r="2.5" fill="#0F172A"/>
  <circle cx="25.7" cy="33.3" r="0.8" fill="#F8FAFC"/>
  <circle cx="39.7" cy="33.3" r="0.8" fill="#F8FAFC"/>
  <ellipse cx="32" cy="42" rx="3" ry="2" fill="#0F172A"/>
  <path d="M 32 44 Q 32 48 29 48" stroke="#0F172A" stroke-width="1" fill="none"/>
  <path d="M 32 44 Q 32 48 35 48" stroke="#0F172A" stroke-width="1" fill="none"/>
</svg>
